# xmcd CD database file
#
# Track frame offsets:
#	150
#	12165
#	25408
#	33740
#	46515
#	60153
#	71471
#	86328
#	97461
#	107757
#	117780
#	130738
#
# Disc length: 1918 seconds
#
# Revision: 0
# Processed by: cddbd v1.5.1PL0 Copyright (c) Steve Scherf et al.
# Submitted via: CDex 1.50beta10
#
DISCID=93077c0c
DTITLE=Slim Whitman - Tennessee Waltz (Sunshine)
DYEAR=2003
DGENRE=Country
TTITLE0=Now is the Hour
TTITLE1=Till I Waltz With You Again
TTITLE2=Have You Ever Been Lonely
TTITLE3=Tennessee Waltz
TTITLE4=You are My Sunshine
TTITLE5=Singing the Blues
TTITLE6=Mockin' Bird Hill
TTITLE7=The Wayward Wind
TTITLE8=Any Time
TTITLE9=Cara Mia
TTITLE10=Release Me
TTITLE11=Red Sails in the Sunset
EXTD=YEAR: 2003
EXTT0=
EXTT1=
EXTT2=
EXTT3=
EXTT4=
EXTT5=
EXTT6=
EXTT7=
EXTT8=
EXTT9=
EXTT10=
EXTT11=
PLAYORDER=
